<svg width="289" height="31" viewBox="0 0 289 31" fill="none" xmlns="http://www.w3.org/2000/svg">
<path d="M0.934381 30V0.999999H22.0544V5.64H6.65438V12.84H21.2144V17.48H6.65438V30H0.934381ZM28.2053 15.48C28.2053 22.28 31.9653 25.96 36.4853 25.96C41.0053 25.96 44.7653 22.28 44.7653 15.48C44.7653 8.68 41.0053 5.04 36.4853 5.04C31.9653 5.04 28.2053 8.68 28.2053 15.48ZM50.6853 15.48C50.6853 24.48 45.1253 30.52 36.4853 30.52C27.8453 30.52 22.2853 24.48 22.2853 15.48C22.2853 6.48 27.8453 0.479999 36.4853 0.479999C45.1253 0.479999 50.6853 6.48 50.6853 15.48ZM71.0944 30L65.3344 18.64H63.9744H59.2544V30H53.5344V0.999999H63.0544C72.6144 0.999999 76.2544 3.72 76.2544 9.8C76.2544 13.12 74.6144 15.92 71.0144 17.44L77.4544 30H71.0944ZM63.6944 5.48H59.2544V14.2H63.9744C68.4144 14.2 70.3744 12.68 70.3744 9.84C70.3744 6.48 67.5744 5.48 63.6944 5.48ZM97.5647 30H91.8847L84.7247 8.2V30H79.4047V0.999999H87.7247L94.7647 23.6L101.605 0.999999H110.005V30H104.685V8.2L97.5647 30ZM131.609 1.04C133.156 1.04 134.529 1.28 135.729 1.76C136.929 2.24 137.876 2.94667 138.569 3.88C139.263 4.78667 139.609 5.90667 139.609 7.24C139.609 9.08 139.063 10.6267 137.969 11.88C136.876 13.1333 135.516 14.2267 133.889 15.16L139.449 20.56C139.983 19.6533 140.449 18.7067 140.849 17.72C141.249 16.7067 141.583 15.6933 141.849 14.68H148.049C147.649 16.1733 147.063 17.7733 146.289 19.48C145.516 21.1867 144.529 22.7867 143.329 24.28L149.209 30H141.849L139.609 27.8C139.023 28.2 138.409 28.56 137.769 28.88C137.129 29.2 136.463 29.48 135.769 29.72C135.076 29.9333 134.343 30.0933 133.569 30.2C132.796 30.3333 131.996 30.4 131.169 30.4C129.009 30.4 127.156 30.0667 125.609 29.4C124.063 28.7067 122.876 27.7467 122.049 26.52C121.223 25.2933 120.809 23.88 120.809 22.28C120.809 20.92 121.009 19.76 121.409 18.8C121.836 17.8133 122.436 16.96 123.209 16.24C124.009 15.4933 124.956 14.8133 126.049 14.2C125.356 13.4 124.796 12.6533 124.369 11.96C123.969 11.24 123.676 10.5333 123.489 9.84C123.329 9.14667 123.249 8.41333 123.249 7.64C123.249 6.28 123.596 5.10667 124.289 4.12C125.009 3.13333 125.996 2.37333 127.249 1.84C128.529 1.30666 129.983 1.04 131.609 1.04ZM129.529 17.76C129.023 18.1333 128.583 18.52 128.209 18.92C127.863 19.32 127.583 19.7467 127.369 20.2C127.183 20.6533 127.089 21.16 127.089 21.72C127.089 22.8667 127.516 23.7733 128.369 24.44C129.223 25.08 130.289 25.4 131.569 25.4C132.423 25.4 133.223 25.2933 133.969 25.08C134.716 24.8667 135.396 24.5733 136.009 24.2L129.529 17.76ZM131.569 5.64C130.903 5.64 130.263 5.81333 129.649 6.16C129.063 6.48 128.769 7.10666 128.769 8.04C128.769 8.70667 128.929 9.34666 129.249 9.96C129.596 10.5733 130.049 11.2 130.609 11.84C131.729 11.2267 132.583 10.6133 133.169 10C133.783 9.38667 134.089 8.68 134.089 7.88C134.089 7.08 133.823 6.50667 133.289 6.16C132.756 5.81333 132.183 5.64 131.569 5.64ZM158.433 30V0.999999H179.553V5.64H164.153V12.84H178.713V17.48H164.153V30H158.433ZM198.504 30L192.744 18.64H191.384H186.664V30H180.944V0.999999H190.464C200.024 0.999999 203.664 3.72 203.664 9.8C203.664 13.12 202.024 15.92 198.424 17.44L204.864 30H198.504ZM191.104 5.48H186.664V14.2H191.384C195.824 14.2 197.784 12.68 197.784 9.84C197.784 6.48 194.984 5.48 191.104 5.48ZM204.214 30L215.014 0.999999H220.774L231.614 30H225.414L223.374 24.12H212.094L210.054 30H204.214ZM217.734 8L213.734 19.44H221.734L217.734 8ZM251.157 30H245.477L238.317 8.2V30H232.997V0.999999H241.317L248.357 23.6L255.197 0.999999H263.597V30H258.277V8.2L251.157 30ZM267.578 30V0.999999H288.698V5.64H273.298V12.84H287.858V17.48H273.298V25.36H288.698V30H267.578Z" fill="white"/>
</svg>
