<svg width="1670" height="180" viewBox="0 0 1670 180" fill="none" xmlns="http://www.w3.org/2000/svg">
<path d="M0 176.72V3.11295H126.434V30.89H34.2424V73.9924H121.405V101.77H34.2424V176.72H0Z" fill="black"/>
<path d="M158.467 89.7966C158.467 130.504 180.976 152.535 208.034 152.535C235.093 152.535 257.602 130.504 257.602 89.7966C257.602 49.0888 235.093 27.2982 208.034 27.2982C180.976 27.2982 158.467 49.0888 158.467 89.7966ZM293.042 89.7966C293.042 143.675 259.757 179.833 208.034 179.833C156.312 179.833 123.027 143.675 123.027 89.7966C123.027 35.9187 156.312 0 208.034 0C259.757 0 293.042 35.9187 293.042 89.7966Z" fill="black"/>
<path d="M410.43 176.72L375.948 108.714H339.551V176.72H305.308V3.11295H362.299C419.53 3.11295 441.32 19.3961 441.32 55.7936C441.32 75.6686 431.503 92.4306 409.951 101.53L448.504 176.72H410.43ZM366.131 29.9322H339.551V82.134H367.807C394.387 82.134 406.12 73.0346 406.12 56.0331C406.12 35.9187 389.358 29.9322 366.131 29.9322Z" fill="black"/>
<path d="M564.104 176.72H530.101L487.238 46.2153V176.72H455.39V3.11295H505.198L547.342 138.407L588.289 3.11295H638.576V176.72H606.728V46.2153L564.104 176.72Z" fill="black"/>
<path d="M758.332 3.35241C767.591 3.35241 775.813 4.78915 782.997 7.66265C790.18 10.5361 795.847 14.7666 799.998 20.3539C804.149 25.7816 806.224 32.4864 806.224 40.4683C806.224 51.4834 802.951 60.7424 796.406 68.2454C789.861 75.7484 781.719 82.2936 771.981 87.881L805.266 120.208C808.459 114.78 811.253 109.113 813.647 103.206C816.042 97.14 818.037 91.0737 819.634 85.0075H856.749C854.355 93.9472 850.843 103.526 846.213 113.742C841.584 123.959 835.677 133.538 828.493 142.477L863.694 176.72H819.634L806.224 163.55C802.712 165.944 799.04 168.099 795.209 170.015C791.378 171.931 787.387 173.607 783.236 175.044C779.085 176.321 774.695 177.278 770.066 177.917C765.436 178.715 760.647 179.114 755.698 179.114C742.768 179.114 731.673 177.119 722.414 173.128C713.155 168.977 706.051 163.23 701.102 155.887C696.153 148.544 693.679 140.083 693.679 130.504C693.679 122.363 694.876 115.419 697.271 109.672C699.825 103.765 703.417 98.6566 708.046 94.3463C712.835 89.8764 718.503 85.8057 725.048 82.134C720.897 77.3448 717.545 72.8749 714.991 68.7243C712.596 64.4141 710.84 60.1837 709.723 56.0331C708.765 51.8825 708.286 47.4924 708.286 42.8629C708.286 34.7214 710.361 27.6973 714.512 21.7906C718.822 15.884 724.729 11.3343 732.232 8.14155C739.894 4.94879 748.594 3.35241 758.332 3.35241ZM745.881 103.446C742.847 105.681 740.213 107.995 737.979 110.39C735.903 112.785 734.227 115.339 732.95 118.053C731.832 120.766 731.274 123.8 731.274 127.152C731.274 134.016 733.828 139.444 738.936 143.435C744.045 147.266 750.43 149.182 758.093 149.182C763.201 149.182 767.991 148.544 772.46 147.266C776.93 145.989 781.001 144.233 784.673 141.998L745.881 103.446ZM758.093 30.89C754.102 30.89 750.271 31.9277 746.599 34.003C743.087 35.9186 741.331 39.6701 741.331 45.2575C741.331 49.2485 742.289 53.0798 744.204 56.7515C746.28 60.4231 748.994 64.1747 752.346 68.006C759.051 64.3343 764.159 60.6626 767.671 56.9909C771.343 53.3192 773.179 49.0888 773.179 44.2997C773.179 39.5105 771.582 36.0783 768.39 34.003C765.197 31.9277 761.765 30.89 758.093 30.89Z" fill="black"/>
<path d="M909.331 176.72V3.11295H1035.76V30.89H943.573V73.9924H1030.74V101.77H943.573V176.72H909.331Z" fill="black"/>
<path d="M1144.42 176.72L1109.94 108.714H1073.54V176.72H1039.3V3.11295H1096.29C1153.52 3.11295 1175.31 19.3961 1175.31 55.7936C1175.31 75.6686 1165.5 92.4306 1143.95 101.53L1182.5 176.72H1144.42ZM1100.12 29.9322H1073.54V82.134H1101.8C1128.38 82.134 1140.11 73.0346 1140.11 56.0331C1140.11 35.9187 1123.35 29.9322 1100.12 29.9322Z" fill="black"/>
<path d="M1173.82 176.72L1238.47 3.11295H1272.95L1337.85 176.72H1300.73L1288.52 141.519H1220.99L1208.78 176.72H1173.82ZM1254.76 45.018L1230.81 113.503H1278.7L1254.76 45.018Z" fill="black"/>
<path d="M1450.05 176.72H1416.05L1373.18 46.2153V176.72H1341.34V3.11295H1391.14L1433.29 138.407L1474.24 3.11295H1524.52V176.72H1492.67V46.2153L1450.05 176.72Z" fill="black"/>
<path d="M1543.57 176.72V3.11295H1670V30.89H1577.81V73.9924H1664.97V101.77H1577.81V148.943H1670V176.72H1543.57Z" fill="black"/>
</svg>
