<svg width="177" height="19" viewBox="0 0 177 19" fill="none" xmlns="http://www.w3.org/2000/svg">
<path d="M12.0513 0.64801L12.7713 5.28001H12.4353C11.8833 2.71201 10.8513 1.68001 8.83534 1.68001H3.72334V8.95201H7.25134C8.64334 8.95201 9.09934 8.30401 8.97934 6.55201H9.31534L10.1073 12H9.77134C9.33934 10.272 8.66734 9.62401 7.49134 9.62401H3.72334V15.888C3.72334 17.088 4.27534 17.52 6.65134 17.664V18H0.0273438V17.664C1.68334 17.52 2.23534 17.088 2.23534 15.888V3.12001C2.23534 1.92001 1.68334 1.48801 0.0273438 1.34401V1.00801H10.6833C11.3313 1.00801 11.6193 0.912011 11.7153 0.64801H12.0513Z" fill="black"/>
<path d="M22.0166 18.36C17.3846 18.36 14.2886 14.808 14.2886 9.86401C14.2886 4.41601 17.5286 0.64801 22.1366 0.64801C26.7686 0.64801 29.8406 4.20001 29.8406 9.14401C29.8406 14.568 26.6246 18.36 22.0166 18.36ZM15.9686 9.38401C16.0886 14.256 18.7286 17.76 22.4486 17.688C25.9526 17.592 28.2566 14.328 28.1606 9.62401C28.0406 4.68001 25.4246 1.24801 21.7046 1.32001C18.1526 1.36801 15.8486 4.68001 15.9686 9.38401Z" fill="black"/>
<path d="M31.7148 17.664C33.2988 17.616 33.9228 17.256 33.9228 15.624V3.36001C33.9228 1.75201 33.2748 1.39201 31.7148 1.34401V1.00801H38.0508C41.7228 1.00801 44.1468 2.85601 44.1468 5.71201C44.1468 8.18401 42.3228 9.91201 39.4908 10.344L44.0988 16.488C44.5788 17.136 45.4668 17.616 46.2348 17.64V18H43.0908C42.9948 17.568 42.7308 17.232 42.4428 16.824L37.7628 10.464H35.4108V15.624C35.4108 17.352 36.1308 17.616 37.6188 17.664V18H31.7148V17.664ZM35.4108 9.79201H37.8828C40.6668 9.79201 42.4668 8.11201 42.4668 5.71201C42.4668 3.33601 40.6908 1.68001 37.8828 1.68001H35.4108V9.79201Z" fill="black"/>
<path d="M67.1505 1.34401C65.4945 1.48801 64.9425 1.92001 64.9425 3.12001V15.888C64.9425 17.088 65.5185 17.544 67.1505 17.664V18H61.2465V17.664C62.9025 17.544 63.4545 17.088 63.4545 15.888V3.31201L56.7825 18H56.4465L50.1105 3.40801V15.888C50.1105 17.088 50.6145 17.544 52.2465 17.664V18H47.2305V17.664C48.8625 17.544 49.4385 17.088 49.4385 15.888V3.09601C49.4385 1.87201 48.8865 1.41601 47.2785 1.36801V1.00801H50.6865L57.0705 15.72L63.7665 1.00801H67.1505V1.34401Z" fill="black"/>
<path d="M88.074 18.144C86.994 18.144 86.49 17.928 84.522 15.936C83.13 17.544 81.402 18.336 79.29 18.336C76.314 18.336 74.37 16.536 74.37 13.872C74.37 11.52 75.906 9.55201 78.018 8.76001C76.506 6.81601 76.098 5.68801 76.074 4.51201C76.05 2.32801 77.682 0.64801 80.058 0.64801C82.29 0.64801 83.73 2.20801 83.73 4.15201C83.73 5.59201 82.65 7.65601 79.914 8.68801C80.49 9.36001 81.162 10.152 82.002 11.088C83.13 12.36 84.114 13.44 84.954 14.328C85.65 13.128 86.082 11.664 86.274 10.08C86.418 8.80801 85.794 8.44801 84.306 8.40001V8.06401H89.682V8.40001C88.218 8.44801 87.45 8.76001 87.162 10.272C86.85 11.976 86.274 13.488 85.386 14.784C86.922 16.368 87.93 17.184 88.53 17.184C89.082 17.184 89.466 16.992 89.802 16.032L90.066 16.128C89.778 17.28 89.178 18.144 88.074 18.144ZM76.002 13.272C76.002 15.72 77.658 17.52 80.178 17.52C81.642 17.52 82.986 16.848 84.114 15.504C83.298 14.64 82.218 13.464 80.778 11.928C79.818 10.896 79.026 10.008 78.402 9.24001C76.938 9.98401 76.002 11.64 76.002 13.272ZM77.25 3.96001C77.25 5.11201 77.706 6.04801 79.482 8.18401C81.642 7.34401 82.65 5.83201 82.65 4.32001C82.65 2.71201 81.474 1.32001 79.77 1.32001C78.234 1.32001 77.25 2.52001 77.25 3.96001Z" fill="black"/>
<path d="M108.59 0.64801L109.31 5.28001H108.974C108.422 2.71201 107.39 1.68001 105.374 1.68001H100.262V8.95201H103.79C105.182 8.95201 105.638 8.30401 105.518 6.55201H105.854L106.646 12H106.31C105.878 10.272 105.206 9.62401 104.03 9.62401H100.262V15.888C100.262 17.088 100.814 17.52 103.19 17.664V18H96.5664V17.664C98.2224 17.52 98.7744 17.088 98.7744 15.888V3.12001C98.7744 1.92001 98.2224 1.48801 96.5664 1.34401V1.00801H107.222C107.87 1.00801 108.158 0.912011 108.254 0.64801H108.59Z" fill="black"/>
<path d="M110.371 17.664C111.955 17.616 112.579 17.256 112.579 15.624V3.36001C112.579 1.75201 111.931 1.39201 110.371 1.34401V1.00801H116.707C120.379 1.00801 122.803 2.85601 122.803 5.71201C122.803 8.18401 120.979 9.91201 118.147 10.344L122.755 16.488C123.235 17.136 124.123 17.616 124.891 17.64V18H121.747C121.651 17.568 121.387 17.232 121.099 16.824L116.419 10.464H114.067V15.624C114.067 17.352 114.787 17.616 116.275 17.664V18H110.371V17.664ZM114.067 9.79201H116.539C119.323 9.79201 121.123 8.11201 121.123 5.71201C121.123 3.33601 119.347 1.68001 116.539 1.68001H114.067V9.79201Z" fill="black"/>
<path d="M138.366 15.24C139.086 17.04 139.71 17.664 140.886 17.664V18H134.622V17.664C136.95 17.664 137.478 17.112 136.83 15.456L135.582 12.264H128.454L127.206 15.456C126.558 17.112 127.086 17.664 129.294 17.664V18H124.11V17.664C125.262 17.664 125.862 17.04 126.582 15.216L132.294 0.64801H132.63L138.366 15.24ZM128.718 11.592H135.318L132.006 3.12001L128.718 11.592Z" fill="black"/>
<path d="M161.322 1.34401C159.666 1.48801 159.114 1.92001 159.114 3.12001V15.888C159.114 17.088 159.69 17.544 161.322 17.664V18H155.418V17.664C157.074 17.544 157.626 17.088 157.626 15.888V3.31201L150.954 18H150.618L144.282 3.40801V15.888C144.282 17.088 144.786 17.544 146.418 17.664V18H141.402V17.664C143.034 17.544 143.61 17.088 143.61 15.888V3.09601C143.61 1.87201 143.058 1.41601 141.45 1.36801V1.00801H144.858L151.242 15.72L157.938 1.00801H161.322V1.34401Z" fill="black"/>
<path d="M175.943 13.704H176.279L175.607 18H163.199V17.664C164.855 17.52 165.407 17.088 165.407 15.888V3.12001C165.407 1.92001 164.855 1.48801 163.199 1.34401V1.00801H173.879C174.503 1.00801 174.815 0.912011 174.911 0.64801H175.247L175.967 5.28001H175.631C175.079 2.71201 174.047 1.68001 172.031 1.68001H166.895V8.95201H170.423C171.815 8.95201 172.271 8.30401 172.151 6.55201H172.487L173.279 12H172.943C172.511 10.272 171.839 9.62401 170.663 9.62401H166.895V15.648C166.895 16.872 167.279 17.328 168.263 17.328H172.535C174.335 17.328 175.391 16.176 175.943 13.704Z" fill="black"/>
</svg>
