<svg width="288" height="31" viewBox="0 0 288 31" fill="none" xmlns="http://www.w3.org/2000/svg">
<path d="M0 29.52V0.52H21.12V5.16H5.72V12.36H20.28V17H5.72V29.52H0Z" fill="black"/>
<path d="M27.2709 15C27.2709 21.8 31.0309 25.48 35.5509 25.48C40.0709 25.48 43.8309 21.8 43.8309 15C43.8309 8.2 40.0709 4.56 35.5509 4.56C31.0309 4.56 27.2709 8.2 27.2709 15ZM49.7509 15C49.7509 24 44.1909 30.04 35.5509 30.04C26.9109 30.04 21.3509 24 21.3509 15C21.3509 6 26.9109 0 35.5509 0C44.1909 0 49.7509 6 49.7509 15Z" fill="black"/>
<path d="M70.16 29.52L64.4 18.16H58.32V29.52H52.6V0.52H62.12C71.68 0.52 75.32 3.24 75.32 9.32C75.32 12.64 73.68 15.44 70.08 16.96L76.52 29.52H70.16ZM62.76 5H58.32V13.72H63.04C67.48 13.72 69.44 12.2 69.44 9.36C69.44 6 66.64 5 62.76 5Z" fill="black"/>
<path d="M96.6303 29.52H90.9503L83.7903 7.72V29.52H78.4703V0.52H86.7903L93.8303 23.12L100.67 0.52H109.07V29.52H103.75V7.72L96.6303 29.52Z" fill="black"/>
<path d="M130.675 0.56C132.222 0.56 133.595 0.8 134.795 1.28C135.995 1.76 136.942 2.46667 137.635 3.4C138.328 4.30667 138.675 5.42667 138.675 6.76C138.675 8.6 138.128 10.1467 137.035 11.4C135.942 12.6533 134.582 13.7467 132.955 14.68L138.515 20.08C139.048 19.1733 139.515 18.2267 139.915 17.24C140.315 16.2267 140.648 15.2133 140.915 14.2H147.115C146.715 15.6933 146.128 17.2933 145.355 19C144.582 20.7067 143.595 22.3067 142.395 23.8L148.275 29.52H140.915L138.675 27.32C138.088 27.72 137.475 28.08 136.835 28.4C136.195 28.72 135.528 29 134.835 29.24C134.142 29.4533 133.408 29.6133 132.635 29.72C131.862 29.8533 131.062 29.92 130.235 29.92C128.075 29.92 126.222 29.5867 124.675 28.92C123.128 28.2267 121.942 27.2667 121.115 26.04C120.288 24.8133 119.875 23.4 119.875 21.8C119.875 20.44 120.075 19.28 120.475 18.32C120.902 17.3333 121.502 16.48 122.275 15.76C123.075 15.0133 124.022 14.3333 125.115 13.72C124.422 12.92 123.862 12.1733 123.435 11.48C123.035 10.76 122.742 10.0533 122.555 9.36C122.395 8.66667 122.315 7.93333 122.315 7.16C122.315 5.8 122.662 4.62667 123.355 3.64C124.075 2.65333 125.062 1.89333 126.315 1.36C127.595 0.826666 129.048 0.56 130.675 0.56ZM128.595 17.28C128.088 17.6533 127.648 18.04 127.275 18.44C126.928 18.84 126.648 19.2667 126.435 19.72C126.248 20.1733 126.155 20.68 126.155 21.24C126.155 22.3867 126.582 23.2933 127.435 23.96C128.288 24.6 129.355 24.92 130.635 24.92C131.488 24.92 132.288 24.8133 133.035 24.6C133.782 24.3867 134.462 24.0933 135.075 23.72L128.595 17.28ZM130.635 5.16C129.968 5.16 129.328 5.33333 128.715 5.68C128.128 6 127.835 6.62667 127.835 7.56C127.835 8.22667 127.995 8.86667 128.315 9.48C128.662 10.0933 129.115 10.72 129.675 11.36C130.795 10.7467 131.648 10.1333 132.235 9.52C132.848 8.90667 133.155 8.2 133.155 7.4C133.155 6.6 132.888 6.02667 132.355 5.68C131.822 5.33333 131.248 5.16 130.635 5.16Z" fill="black"/>
<path d="M157.498 29.52V0.52H178.618V5.16H163.218V12.36H177.778V17H163.218V29.52H157.498Z" fill="black"/>
<path d="M197.569 29.52L191.809 18.16H185.729V29.52H180.009V0.52H189.529C199.089 0.52 202.729 3.24 202.729 9.32C202.729 12.64 201.089 15.44 197.489 16.96L203.929 29.52H197.569ZM190.169 5H185.729V13.72H190.449C194.889 13.72 196.849 12.2 196.849 9.36C196.849 6 194.049 5 190.169 5Z" fill="black"/>
<path d="M203.28 29.52L214.08 0.52H219.84L230.68 29.52H224.48L222.44 23.64H211.16L209.12 29.52H203.28ZM216.8 7.52L212.8 18.96H220.8L216.8 7.52Z" fill="black"/>
<path d="M250.223 29.52H244.542L237.383 7.72V29.52H232.062V0.52H240.383L247.423 23.12L254.262 0.52H262.663V29.52H257.342V7.72L250.223 29.52Z" fill="black"/>
<path d="M266.644 29.52V0.52H287.764V5.16H272.364V12.36H286.924V17H272.364V24.88H287.764V29.52H266.644Z" fill="black"/>
</svg>
