<svg width="64" height="65" viewBox="0 0 64 65" fill="none" xmlns="http://www.w3.org/2000/svg">
<g clip-path="url(#clip0_480_967)">
<path d="M32.5871 41.3668C32.5871 50.265 32.3148 64.7743 31.9791 64.7743C31.6433 64.7743 31.3711 50.265 31.3711 41.3668C31.3711 32.4685 31.6433 32.5509 31.9791 32.5509C32.3148 32.5509 32.5871 32.4685 32.5871 41.3668Z" fill="black"/>
<path d="M32.5871 41.3668C32.5871 50.265 32.3148 64.7743 31.9791 64.7743C31.6433 64.7743 31.3711 50.265 31.3711 41.3668C31.3711 32.4685 31.6433 32.5509 31.9791 32.5509C32.3148 32.5509 32.5871 32.4685 32.5871 41.3668Z" fill="black" fill-opacity="0.2"/>
<path d="M32.5871 23.735C32.5871 14.8367 32.3148 0.327393 31.9791 0.327393C31.6433 0.327393 31.3711 14.8367 31.3711 23.735C31.3711 32.6332 31.6433 32.5508 31.9791 32.5508C32.3148 32.5508 32.5871 32.6332 32.5871 23.735Z" fill="black"/>
<path d="M32.5871 23.735C32.5871 14.8367 32.3148 0.327393 31.9791 0.327393C31.6433 0.327393 31.3711 14.8367 31.3711 23.735C31.3711 32.6332 31.6433 32.5508 31.9791 32.5508C32.3148 32.5508 32.5871 32.6332 32.5871 23.735Z" fill="black" fill-opacity="0.2"/>
<path d="M40.5502 31.9431C49.4485 31.9431 63.9578 32.2153 63.9578 32.5511C63.9578 32.8869 49.4485 33.1591 40.5502 33.1591C31.652 33.1591 31.7344 32.8869 31.7344 32.5511C31.7344 32.2153 31.652 31.9431 40.5502 31.9431Z" fill="black"/>
<path d="M40.5502 31.9431C49.4485 31.9431 63.9578 32.2153 63.9578 32.5511C63.9578 32.8869 49.4485 33.1591 40.5502 33.1591C31.652 33.1591 31.7344 32.8869 31.7344 32.5511C31.7344 32.2153 31.652 31.9431 40.5502 31.9431Z" fill="black" fill-opacity="0.2"/>
<path d="M23.4075 31.9431C14.5093 31.9431 0 32.2153 0 32.5511C0 32.8869 14.5093 33.1591 23.4075 33.1591C32.3058 33.1591 32.2234 32.8869 32.2234 32.5511C32.2234 32.2153 32.3058 31.9431 23.4075 31.9431Z" fill="black"/>
<path d="M23.4075 31.9431C14.5093 31.9431 0 32.2153 0 32.5511C0 32.8869 14.5093 33.1591 23.4075 33.1591C32.3058 33.1591 32.2234 32.8869 32.2234 32.5511C32.2234 32.2153 32.3058 31.9431 23.4075 31.9431Z" fill="black" fill-opacity="0.2"/>
<path d="M26.0443 25.7559C19.7522 19.4639 9.30011 9.39674 9.06272 9.63413C8.82525 9.8716 18.8924 20.3237 25.1844 26.6157C31.4764 32.9077 31.6106 32.657 31.8481 32.4196C32.0855 32.1821 32.3362 32.0479 26.0443 25.7559Z" fill="black"/>
<path d="M26.0443 25.7559C19.7522 19.4639 9.30011 9.39674 9.06272 9.63413C8.82525 9.8716 18.8924 20.3237 25.1844 26.6157C31.4764 32.9077 31.6106 32.657 31.8481 32.4196C32.0855 32.1821 32.3362 32.0479 26.0443 25.7559Z" fill="black" fill-opacity="0.2"/>
<path d="M38.8297 26.6154C45.1217 20.3234 55.1889 9.87128 54.9515 9.63389C54.714 9.39641 44.2619 19.4636 37.9699 25.7556C31.6779 32.0476 31.9286 32.1818 32.166 32.4192C32.4035 32.6567 32.5377 32.9074 38.8297 26.6154Z" fill="black"/>
<path d="M38.8297 26.6154C45.1217 20.3234 55.1889 9.87128 54.9515 9.63389C54.714 9.39641 44.2619 19.4636 37.9699 25.7556C31.6779 32.0476 31.9286 32.1818 32.166 32.4192C32.4035 32.6567 32.5377 32.9074 38.8297 26.6154Z" fill="black" fill-opacity="0.2"/>
<path d="M38.4664 37.9334C44.7585 44.2254 54.8256 54.6775 54.5881 54.915C54.3507 55.1524 43.8986 45.0852 37.6066 38.7932C31.3146 32.5012 31.5654 32.367 31.8028 32.1295C32.0402 31.8921 32.1744 31.6414 38.4664 37.9334Z" fill="black"/>
<path d="M38.4664 37.9334C44.7585 44.2254 54.8256 54.6775 54.5881 54.915C54.3507 55.1524 43.8986 45.0852 37.6066 38.7932C31.3146 32.5012 31.5654 32.367 31.8028 32.1295C32.0402 31.8921 32.1744 31.6414 38.4664 37.9334Z" fill="black" fill-opacity="0.2"/>
<path d="M25.5478 37.9338C19.2557 44.2257 9.18861 54.6779 9.426 54.9153C9.66347 55.1527 20.1155 45.0856 26.4076 38.7936C32.6996 32.5015 32.4488 32.3674 32.2113 32.1299C31.974 31.8925 31.8397 31.6417 25.5478 37.9338Z" fill="black"/>
<path d="M25.5478 37.9338C19.2557 44.2257 9.18861 54.6779 9.426 54.9153C9.66347 55.1527 20.1155 45.0856 26.4076 38.7936C32.6996 32.5015 32.4488 32.3674 32.2113 32.1299C31.974 31.8925 31.8397 31.6417 25.5478 37.9338Z" fill="black" fill-opacity="0.2"/>
</g>
<defs>
<clipPath id="clip0_480_967">
<rect width="64" height="64.8421" fill="white"/>
</clipPath>
</defs>
</svg>
